# xmcd
#
# Track frame offsets:
#	150
#	20469
#	36069
#	53638
#	71083
#	86818
#	104353
#	122025
#	139022
#	150131
#	166673
#	182482
#
# Disc length: 2626 seconds
#
# Revision: 1
# Processed by: cddbd v1.5.2PL0 Copyright (c) Steve Scherf et al.
# Submitted via: audiograbber 1.83.01
#
DISCID=8e0a400c
DTITLE=Ashley Monroe - Sparrow
DYEAR=2018
DGENRE=Country
TTITLE0=Orphan
TTITLE1=Hard On a Heart
TTITLE2=Hands On You
TTITLE3=Mother's Daughter
TTITLE4=Rita
TTITLE5=Wild Love
TTITLE6=This Heaven
TTITLE7=I'm Trying To
TTITLE8=She Wakes Me Up (Rescue Me)
TTITLE9=Paying Attention
TTITLE10=Daddy I Told You
TTITLE11=Keys to the Kingdom
EXTD=
EXTT0=
EXTT1=
EXTT2=
EXTT3=
EXTT4=
EXTT5=
EXTT6=
EXTT7=
EXTT8=
EXTT9=
EXTT10=
EXTT11=
PLAYORDER=
